<svg width="261" height="42" viewBox="0 0 261 42" fill="none" xmlns="http://www.w3.org/2000/svg">
<path d="M28.5495 0C30.7196 0.00016592 32.4787 1.76279 32.4787 3.9375V38.0625C32.4787 40.2372 30.7196 41.9998 28.5495 42H12.8199C10.6498 41.9998 8.89062 40.2372 8.89062 38.0625V3.9375C8.89062 1.76279 10.6498 0.000167558 12.8199 0H28.5495ZM12.8199 2.625C12.0971 2.62517 11.5102 3.2131 11.5102 3.9375V38.0625C11.5102 38.7869 12.0971 39.3748 12.8199 39.375H28.5495C29.2723 39.3748 29.8592 38.7869 29.8592 38.0625V3.9375C29.8592 3.2131 29.2723 2.62517 28.5495 2.625H12.8199ZM20.6866 32.8199C22.1306 32.8199 23.2999 33.9924 23.2999 35.4375C23.2999 36.8826 22.1306 38.0563 20.6866 38.0563C19.2432 38.0562 18.0738 36.8826 18.0738 35.4375C18.0738 33.9924 19.2426 32.82 20.6866 32.8199ZM23.3061 3.9375C24.0291 3.9375 24.6158 4.5255 24.6158 5.25C24.6158 5.9745 24.0291 6.5625 23.3061 6.5625H18.067C17.3441 6.56244 16.7573 5.97446 16.7573 5.25C16.7573 4.52554 17.3441 3.93756 18.067 3.9375H23.3061Z" fill="#001830"/>
<path d="M55.1874 6.25677C57.3821 6.25677 59.3466 6.63692 61.0807 7.39712C62.8147 8.13021 64.2098 9.22972 65.2665 10.6958C66.3505 12.1348 67.0281 13.9137 67.2993 16.0316H61.6903C61.3381 14.7012 60.6203 13.6553 59.5365 12.8951C58.4799 12.1077 57.0707 11.7143 55.3096 11.7143C53.3588 11.7143 51.8006 12.1625 50.6355 13.0585C49.4976 13.9274 48.6715 15.0678 48.1567 16.4796C47.642 17.8642 47.3841 19.3301 47.384 20.8776C47.384 22.4794 47.6552 24.0001 48.1971 25.439C48.7389 26.8781 49.5925 28.0462 50.7576 28.9422C51.9497 29.838 53.5076 30.2857 55.4311 30.2857C56.5691 30.2857 57.5857 30.1231 58.4798 29.7972C59.3739 29.4443 60.1056 28.9418 60.6745 28.2903C61.2705 27.6386 61.677 26.8644 61.8937 25.9685H67.7051C67.4612 28.0592 66.7569 29.8381 65.5917 31.3043C64.4264 32.7703 62.9501 33.8837 61.162 34.6439C59.3738 35.377 57.3958 35.7432 55.2284 35.7433C52.275 35.7433 49.755 35.1457 47.6687 33.951C45.6095 32.7292 44.038 31.0189 42.9543 28.8197C41.8976 26.6205 41.3692 24.0547 41.3691 21.1225C41.3691 18.1359 41.9109 15.5291 42.9946 13.3028C44.1055 11.0764 45.6908 9.35228 47.7499 8.13046C49.8091 6.88147 52.2883 6.25679 55.1874 6.25677ZM80.9494 13.5874C82.5751 13.5874 83.9976 13.8591 85.2168 14.4021C86.4634 14.9451 87.5068 15.7054 88.3463 16.6828C89.2131 17.6603 89.8501 18.8007 90.2565 20.1039C90.6902 21.38 90.8934 22.765 90.8661 24.2583C90.8661 24.6383 90.8528 25.0047 90.8255 25.3577C90.7988 25.7106 90.7442 26.0636 90.6629 26.4166H75.991C76.0723 27.2311 76.3028 27.9781 76.6819 28.6569C77.0611 29.3356 77.5894 29.8784 78.267 30.2857C78.9712 30.6658 79.8387 30.8562 80.8681 30.8562C81.545 30.8562 82.1686 30.7881 82.7376 30.6524C83.3066 30.4895 83.7943 30.2449 84.2008 29.919C84.6072 29.5932 84.8923 29.2131 85.0549 28.7787H90.6629C90.3105 30.3806 89.6468 31.6975 88.6714 32.7292C87.7233 33.761 86.572 34.5212 85.2168 35.01C83.8623 35.4716 82.4392 35.7029 80.9494 35.7029C78.7007 35.7028 76.7905 35.2546 75.2188 34.3587C73.6477 33.4627 72.4418 32.2 71.6016 30.5709C70.7615 28.9147 70.3417 26.987 70.3417 24.7877C70.3417 22.5613 70.7755 20.6198 71.6423 18.9635C72.5097 17.2802 73.729 15.9633 75.3001 15.013C76.8985 14.0628 78.782 13.5874 80.9494 13.5874ZM110.341 25.5615C110.341 26.5389 110.477 27.4076 110.748 28.1678C111.046 28.9008 111.492 29.4847 112.088 29.919C112.711 30.3535 113.511 30.5709 114.486 30.5709C115.543 30.5709 116.356 30.3402 116.925 29.8786C117.494 29.4171 117.887 28.8062 118.103 28.046C118.321 27.2586 118.429 26.4303 118.429 25.5615V13.954H124.078V25.9685C124.078 29.3624 123.224 31.8335 121.517 33.3812C119.838 34.9288 117.48 35.7029 114.446 35.7029C111.303 35.7028 108.878 34.9016 107.171 33.2997C105.49 31.6706 104.651 29.2266 104.651 25.9685V13.954H110.341V25.5615ZM172.626 13.6284C175.742 13.6285 178.045 14.5243 179.536 16.3161C181.025 18.081 181.77 20.5931 181.77 23.8513V35.4176H176.65L176.569 32.6478C175.891 33.5981 175.119 34.2909 174.251 34.7254C173.412 35.1597 172.599 35.4308 171.814 35.5395C171.027 35.648 170.391 35.7029 169.903 35.7029C168.928 35.7029 167.979 35.5806 167.058 35.3362C166.164 35.0647 165.365 34.6573 164.661 34.1145C163.956 33.5715 163.401 32.8925 162.994 32.078C162.588 31.2634 162.385 30.3128 162.385 29.2267C162.385 27.7607 162.682 26.5931 163.278 25.7243C163.874 24.8283 164.674 24.1494 165.677 23.6878C166.679 23.2262 167.831 22.9141 169.131 22.7513C170.459 22.5884 171.827 22.5071 173.236 22.5071H176.324C176.324 21.7197 176.175 21.0275 175.877 20.4302C175.606 19.8057 175.187 19.3304 174.618 19.0046C174.049 18.6516 173.317 18.4751 172.423 18.4751C171.854 18.4751 171.299 18.5564 170.757 18.7193C170.242 18.855 169.808 19.0587 169.456 19.3302C169.104 19.6017 168.874 19.9547 168.765 20.3891H162.994C163.157 19.1945 163.536 18.1764 164.132 17.3347C164.728 16.4659 165.473 15.7598 166.367 15.2168C167.261 14.6738 168.237 14.2798 169.294 14.0355C170.377 13.764 171.488 13.6284 172.626 13.6284ZM234.668 13.5874C236.293 13.5874 237.716 13.8591 238.936 14.4021C240.182 14.9451 241.225 15.7054 242.065 16.6828C242.932 17.6603 243.568 18.8007 243.975 20.1039C244.408 21.38 244.612 22.765 244.584 24.2583C244.584 24.6383 244.572 25.0047 244.544 25.3577C244.517 25.7106 244.462 26.0636 244.381 26.4166H229.71C229.791 27.2311 230.021 27.9781 230.4 28.6569C230.78 29.3356 231.308 29.8784 231.986 30.2857C232.69 30.6658 233.557 30.8562 234.586 30.8562C235.264 30.8562 235.888 30.7881 236.456 30.6524C237.025 30.4895 237.513 30.2449 237.919 29.919C238.325 29.5932 238.61 29.2131 238.772 28.7787H244.381C244.029 30.3806 243.365 31.6975 242.39 32.7292C241.442 33.761 240.29 34.5212 238.936 35.01C237.581 35.4716 236.158 35.7029 234.668 35.7029C232.419 35.7028 230.509 35.2546 228.938 34.3587C227.366 33.4627 226.16 32.2 225.32 30.5709C224.48 28.9147 224.06 26.987 224.06 24.7877C224.06 22.5613 224.494 20.6198 225.361 18.9635C226.228 17.2802 227.447 15.9633 229.019 15.013C230.617 14.0628 232.5 13.5874 234.668 13.5874ZM100.221 35.4176H94.5315V6.58245H100.221V35.4176ZM151.875 13.6284C153.528 13.6284 154.856 13.9814 155.859 14.6874C156.888 15.366 157.633 16.3163 158.094 17.538C158.581 18.7598 158.825 20.1857 158.825 21.8148V35.4176H153.136V23.3217C153.136 22.8331 153.109 22.3306 153.055 21.8148C153 21.2989 152.865 20.8097 152.648 20.3481C152.458 19.8866 152.16 19.5064 151.754 19.2078C151.374 18.9091 150.832 18.7603 150.128 18.7603C149.451 18.7603 148.882 18.9092 148.421 19.2078C147.96 19.5064 147.595 19.9143 147.323 20.4302C147.053 20.9188 146.85 21.4618 146.714 22.059C146.606 22.6291 146.551 23.2129 146.551 23.8102V35.4176H140.861V23.2808C140.861 22.8192 140.835 22.3305 140.78 21.8148C140.726 21.2989 140.604 20.8097 140.414 20.3481C140.225 19.8867 139.913 19.5064 139.48 19.2078C139.074 18.9091 138.504 18.7603 137.772 18.7603C136.77 18.7603 135.998 19.0587 135.456 19.6558C134.941 20.226 134.602 20.9188 134.44 21.7333C134.277 22.5206 134.196 23.2539 134.196 23.9326V35.4176H128.506V13.954H133.628L134.115 16.3572C134.657 15.5969 135.253 15.0265 135.904 14.6463C136.58 14.2392 137.258 13.968 137.936 13.8322C138.613 13.6965 139.236 13.6284 139.805 13.6284C141.078 13.6284 142.203 13.873 143.179 14.3617C144.154 14.8505 144.939 15.6378 145.536 16.7239C146.105 15.9365 146.728 15.3256 147.405 14.8912C148.082 14.4296 148.8 14.1037 149.559 13.9137C150.318 13.7236 151.09 13.6284 151.875 13.6284ZM197.88 13.5874C198.232 13.5874 198.557 13.6012 198.855 13.6284H199.505V19.1264H198.164C196.891 19.1264 195.78 19.3439 194.832 19.7783C193.883 20.2127 193.151 20.8916 192.637 21.8148C192.149 22.7378 191.905 23.9188 191.905 25.3577V35.4176H186.215V13.954H191.337L191.702 16.52C192.244 15.7055 192.854 15.0946 193.531 14.6874C194.208 14.253 194.913 13.968 195.645 13.8322C196.376 13.6694 197.121 13.5874 197.88 13.5874ZM207.86 22.1814H210.664L215.907 13.954H222.289L215.46 24.1769L222.858 35.4176H216.273L210.908 27.2723H207.86V35.4176H202.17V6.58245H207.86V22.1814ZM255.525 13.954H260.199V19.0449H255.525V27.4351C255.525 28.3311 255.688 29.0372 256.013 29.553C256.339 30.0687 257.07 30.3267 258.208 30.3267H259.996V35.4176H257.964C256.176 35.4176 254.672 35.2001 253.453 34.7657C252.261 34.3313 251.353 33.5982 250.73 32.5664C250.134 31.5075 249.835 30.0683 249.835 28.2492V19.0449H246.665V13.954H249.835V8.21186H255.525V13.954ZM172.463 26.3352C171.894 26.3352 171.339 26.3623 170.797 26.4166C170.283 26.4709 169.808 26.58 169.375 26.7428C168.969 26.8786 168.643 27.1093 168.4 27.4351C168.156 27.7609 168.033 28.1953 168.033 28.7383C168.034 29.2812 168.169 29.7428 168.44 30.1229C168.737 30.4759 169.131 30.7475 169.619 30.9376C170.107 31.1005 170.635 31.1818 171.204 31.1818C172.152 31.1818 173.019 30.992 173.804 30.612C174.591 30.2319 175.214 29.7156 175.675 29.064C176.135 28.4123 176.366 27.6791 176.366 26.8646V26.3352H172.463ZM80.8274 18.2308C79.7981 18.2308 78.9306 18.4345 78.2263 18.8417C77.5488 19.249 77.0344 19.7787 76.6819 20.4302C76.3568 21.0546 76.1676 21.7198 76.1129 22.4256H85.42C85.3927 21.6926 85.2035 21.0136 84.851 20.3891C84.5259 19.7375 84.0249 19.2218 83.3473 18.8417C82.697 18.4345 81.8568 18.2309 80.8274 18.2308ZM234.546 18.2308C233.516 18.2308 232.649 18.4345 231.945 18.8417C231.268 19.249 230.753 19.7786 230.4 20.4302C230.076 21.0546 229.886 21.7198 229.832 22.4256H239.138C239.112 21.6926 238.922 21.0136 238.57 20.3891C238.245 19.7375 237.743 19.2218 237.066 18.8417C236.416 18.4345 235.576 18.2309 234.546 18.2308Z" fill="#001830"/>
</svg>
