<svg width="45" height="30" viewBox="0 0 45 30" fill="none" xmlns="http://www.w3.org/2000/svg">
<rect x="0.5" y="0.5" width="44" height="29" rx="3.5" fill="white" stroke="#F3F3F3"/>
<path fill-rule="evenodd" clip-rule="evenodd" d="M16.4863 23.168V24.2756V25.3833H15.9841V25.1143C15.8248 25.3138 15.5831 25.439 15.2545 25.439C14.6069 25.439 14.0991 24.9525 14.0991 24.2756C14.0991 23.5992 14.6069 23.1123 15.2545 23.1123C15.5831 23.1123 15.8248 23.2375 15.9841 23.4369V23.168H16.4863ZM15.317 23.5664C14.8823 23.5664 14.6163 23.8862 14.6163 24.2756C14.6163 24.665 14.8823 24.9849 15.317 24.9849C15.7324 24.9849 16.0128 24.6788 16.0128 24.2756C16.0128 23.8724 15.7324 23.5664 15.317 23.5664ZM33.4574 24.2756C33.4574 23.8862 33.7234 23.5664 34.1582 23.5664C34.5741 23.5664 34.8539 23.8724 34.8539 24.2756C34.8539 24.6788 34.5741 24.9849 34.1582 24.9849C33.7234 24.9849 33.4574 24.665 33.4574 24.2756ZM35.328 22.2783V24.2756V25.3833H34.8252V25.1143C34.6659 25.3138 34.4242 25.439 34.0957 25.439C33.448 25.439 32.9403 24.9525 32.9403 24.2756C32.9403 23.5992 33.448 23.1123 34.0957 23.1123C34.4242 23.1123 34.6659 23.2375 34.8252 23.4369V22.2783H35.328ZM22.7202 23.5435C23.0437 23.5435 23.2517 23.7382 23.3048 24.0809H22.1063C22.1599 23.761 22.3623 23.5435 22.7202 23.5435ZM21.5797 24.2756C21.5797 23.5849 22.0531 23.1123 22.7301 23.1123C23.3772 23.1123 23.8219 23.5849 23.8269 24.2756C23.8269 24.3403 23.8219 24.4008 23.817 24.4608H22.1018C22.1743 24.8597 22.4691 25.0034 22.7926 25.0034C23.0244 25.0034 23.2711 24.9196 23.4646 24.7716L23.7108 25.1286C23.4303 25.3557 23.1118 25.439 22.7639 25.439C22.0725 25.439 21.5797 24.9801 21.5797 24.2756ZM28.7943 24.2756C28.7943 23.8862 29.0603 23.5664 29.495 23.5664C29.9104 23.5664 30.1908 23.8724 30.1908 24.2756C30.1908 24.6788 29.9104 24.9849 29.495 24.9849C29.0603 24.9849 28.7943 24.665 28.7943 24.2756ZM30.6643 23.168V24.2756V25.3833H30.1621V25.1143C30.0022 25.3138 29.7611 25.439 29.4325 25.439C28.7849 25.439 28.2771 24.9525 28.2771 24.2756C28.2771 23.5992 28.7849 23.1123 29.4325 23.1123C29.7611 23.1123 30.0022 23.2375 30.1621 23.4369V23.168H30.6643ZM25.958 24.2756C25.958 24.9477 26.4458 25.439 27.1903 25.439C27.5382 25.439 27.7699 25.3647 28.021 25.1748L27.7799 24.7854C27.5913 24.9154 27.3932 24.9849 27.1753 24.9849C26.7743 24.9801 26.4795 24.7021 26.4795 24.2756C26.4795 23.8491 26.7743 23.5711 27.1753 23.5664C27.3932 23.5664 27.5913 23.6358 27.7799 23.7658L28.021 23.3764C27.7699 23.1865 27.5382 23.1123 27.1903 23.1123C26.4458 23.1123 25.958 23.6035 25.958 24.2756ZM31.824 23.4369C31.9545 23.2422 32.1432 23.1123 32.433 23.1123C32.5347 23.1123 32.6797 23.1308 32.7908 23.1727L32.636 23.6268C32.5298 23.5849 32.4236 23.5711 32.3218 23.5711C31.9933 23.5711 31.829 23.7748 31.829 24.1414V25.3833H31.3262V23.168H31.824V23.4369ZM18.9702 23.3441C18.7285 23.1913 18.3955 23.1123 18.0282 23.1123C17.4431 23.1123 17.0664 23.3812 17.0664 23.8215C17.0664 24.1828 17.3468 24.4056 17.8634 24.4751L18.1007 24.5074C18.3761 24.5446 18.5061 24.6141 18.5061 24.7393C18.5061 24.9106 18.3225 25.0082 17.9796 25.0082C17.6317 25.0082 17.3806 24.9016 17.2113 24.7764L16.9746 25.1514C17.25 25.3461 17.5979 25.439 17.9746 25.439C18.6416 25.439 19.0282 25.1376 19.0282 24.7159C19.0282 24.3265 18.724 24.1228 18.2213 24.0533L17.9846 24.0204C17.7672 23.9929 17.593 23.9515 17.593 23.803C17.593 23.6406 17.7572 23.5435 18.0327 23.5435C18.3275 23.5435 18.6129 23.6502 18.7528 23.7335L18.9702 23.3441ZM24.8418 23.4369C24.9718 23.2422 25.1604 23.1123 25.4502 23.1123C25.552 23.1123 25.6969 23.1308 25.8081 23.1727L25.6532 23.6268C25.547 23.5849 25.4408 23.5711 25.3391 23.5711C25.0105 23.5711 24.8463 23.7748 24.8463 24.1414V25.3833H24.3441V23.168H24.8418V23.4369ZM21.1642 23.168H20.3429V22.4958H19.8352V23.168H19.3667V23.6083H19.8352V24.6188C19.8352 25.1329 20.0431 25.439 20.6371 25.439C20.8551 25.439 21.1062 25.3742 21.2655 25.2676L21.1206 24.8549C20.9707 24.9382 20.8064 24.9801 20.6759 24.9801C20.4248 24.9801 20.3429 24.8316 20.3429 24.6093V23.6083H21.1642V23.168ZM13.655 23.9929V25.3833H13.1472V24.1504C13.1472 23.7748 12.9829 23.5664 12.64 23.5664C12.3065 23.5664 12.0748 23.7706 12.0748 24.1552V25.3833H11.567V24.1504C11.567 23.7748 11.3983 23.5664 11.0648 23.5664C10.7214 23.5664 10.499 23.7706 10.499 24.1552V25.3833H9.99182V23.168H10.4946V23.4412C10.6832 23.1818 10.9243 23.1123 11.171 23.1123C11.5239 23.1123 11.775 23.2608 11.9343 23.5064C12.1472 23.1955 12.4514 23.1075 12.7462 23.1123C13.3071 23.117 13.655 23.4693 13.655 23.9929Z" fill="#231F20"/>
<path d="M26.4154 19.4038H18.8037V6.28381H26.4154V19.4038Z" fill="#FF5F00"/>
<path d="M19.2866 12.844C19.2866 10.1826 20.5858 7.81183 22.609 6.28403C21.1295 5.16684 19.2623 4.50002 17.233 4.50002C12.4288 4.50002 8.53448 8.23569 8.53448 12.844C8.53448 17.4523 12.4288 21.188 17.233 21.188C19.2623 21.188 21.1295 20.5212 22.609 19.404C20.5858 17.8762 19.2866 15.5054 19.2866 12.844Z" fill="#EB001B"/>
<path d="M36.6842 12.844C36.6842 17.4523 32.7899 21.188 27.9857 21.188C25.9564 21.188 24.0891 20.5212 22.6091 19.404C24.6328 17.8762 25.9321 15.5054 25.9321 12.844C25.9321 10.1826 24.6328 7.81183 22.6091 6.28403C24.0891 5.16684 25.9564 4.50002 27.9857 4.50002C32.7899 4.50002 36.6842 8.23569 36.6842 12.844Z" fill="#F79E1B"/>
</svg>
