<svg width="86" height="30" viewBox="0 0 86 30" fill="none" xmlns="http://www.w3.org/2000/svg">
<rect x="0.5" y="0.5" width="85" height="29" rx="3.5" fill="white" stroke="#F3F3F3"/>
<path d="M32.7221 14.0644C32.7221 9.07092 26.5168 5 18.8615 5C11.2069 5 5.00156 9.07092 5.00156 14.0644C5.00156 14.1939 5 14.5503 5 14.5955C5 19.8932 10.4238 24.184 18.8599 24.184C27.3482 24.184 32.7221 19.8947 32.7221 14.5963C32.7221 14.4115 32.7221 14.3046 32.7221 14.0644Z" fill="#0A0080"/>
<path d="M32.1922 14.0608C32.1922 18.7689 26.2255 22.5856 18.865 22.5856C11.5045 22.5856 5.5378 18.7689 5.5378 14.0608C5.5378 9.35196 11.5045 5.53528 18.865 5.53528C26.2255 5.53528 32.1922 9.35196 32.1922 14.0608Z" fill="#00BCFF"/>
<path d="M14.4384 11.3709C14.4314 11.3842 14.2988 11.5223 14.3846 11.6322C14.5952 11.9013 15.2449 12.055 15.9016 11.9076C16.2924 11.8202 16.7939 11.4216 17.2798 11.0356C17.8055 10.6175 18.3281 10.1994 18.853 10.0325C19.4083 9.85548 19.7647 9.93191 20.0003 10.0029C20.2585 10.0793 20.5619 10.2494 21.0462 10.6128C21.958 11.2984 25.6246 14.4994 26.2579 15.0524C26.7688 14.8215 29.0361 13.8458 32.1178 13.1664C31.8502 11.5238 30.8503 10.02 29.3349 8.78927C27.2227 9.67687 24.6411 10.1402 22.1171 8.90704C22.1038 8.90158 20.7374 8.255 19.3904 8.28698C17.3866 8.33299 16.5193 9.20031 15.6013 10.1175L14.4384 11.3709Z" fill="white"/>
<path d="M26.1096 15.4012C26.0667 15.3629 21.798 11.6277 20.8317 10.9016C20.2716 10.482 19.9604 10.3743 19.6336 10.333C19.4636 10.3104 19.2281 10.3423 19.0643 10.3876C18.6142 10.51 18.0261 10.9031 17.5036 11.3173C16.963 11.7478 16.453 12.1534 15.9803 12.2595C15.3758 12.3952 14.638 12.2345 14.301 12.0076C14.1645 11.9155 14.0686 11.8094 14.0226 11.7018C13.8978 11.4132 14.1271 11.1824 14.1653 11.1441L15.3431 9.86969C15.4803 9.73319 15.6176 9.5967 15.7588 9.46177C15.3789 9.51168 15.0272 9.6084 14.6856 9.70356C14.2589 9.82367 13.8487 9.93754 13.4329 9.93754C13.2598 9.93754 12.3309 9.78545 12.1546 9.73709C11.0884 9.44539 10.1524 9.16148 8.75552 8.50866C7.08095 9.75581 5.96093 11.3142 5.63724 13.0309C5.87825 13.0948 6.26589 13.2103 6.4289 13.2461C10.218 14.0885 11.398 14.9566 11.6125 15.1383C11.8442 14.8802 12.1788 14.7171 12.5524 14.7171C12.9712 14.7179 13.3495 14.9277 13.5788 15.2538C13.7956 15.0822 14.0951 14.9363 14.482 14.9363C14.6575 14.9363 14.84 14.9691 15.0241 15.0315C15.4515 15.1781 15.6722 15.4628 15.7869 15.7202C15.9304 15.6554 16.1067 15.6079 16.3141 15.6086C16.5185 15.6086 16.7306 15.6547 16.9443 15.7475C17.6432 16.047 17.7516 16.7333 17.6884 17.2505C17.7383 17.245 17.7882 17.2427 17.8389 17.2427C18.6673 17.2434 19.3411 17.9165 19.3411 18.7456C19.3411 19.0022 19.2756 19.2432 19.161 19.4546C19.3864 19.5818 19.9612 19.868 20.4658 19.804C20.8691 19.7533 21.022 19.6153 21.0766 19.5381C21.114 19.485 21.1538 19.4226 21.1171 19.3782L20.0478 18.1903C20.0478 18.1903 19.8715 18.0234 19.93 17.9594C19.9901 17.8931 20.0993 17.9883 20.1757 18.0522C20.7201 18.507 21.3846 19.1926 21.3846 19.1926C21.3956 19.2004 21.44 19.2869 21.6857 19.3314C21.8971 19.3688 22.2715 19.347 22.5304 19.1341C22.5959 19.0802 22.6614 19.0132 22.716 18.9437C22.7121 18.9469 22.7082 18.9523 22.7043 18.9539C22.9773 18.6037 22.6739 18.2496 22.6739 18.2496L21.4252 16.848C21.4252 16.848 21.2474 16.6826 21.3074 16.6163C21.362 16.5586 21.4767 16.646 21.5555 16.7107C21.9501 17.0414 22.5086 17.6014 23.0444 18.1256C23.1481 18.2028 23.6192 18.4937 24.2416 18.0842C24.6199 17.8362 24.6956 17.532 24.6847 17.3019C24.6589 16.9977 24.421 16.7809 24.421 16.7809L22.716 15.0666C22.716 15.0666 22.5359 14.9129 22.5998 14.8349C22.6521 14.7694 22.7691 14.8638 22.8455 14.9277C23.3884 15.3824 24.8594 16.731 24.8594 16.731C24.8804 16.7458 25.3882 17.1077 26.016 16.7076C26.2407 16.5641 26.3842 16.348 26.3967 16.0961C26.4177 15.6601 26.1096 15.4012 26.1096 15.4012Z" fill="white"/>
<path d="M17.8411 17.5743C17.5767 17.5712 17.2874 17.7279 17.2499 17.7053C17.2289 17.6913 17.2655 17.5852 17.2905 17.5236C17.3162 17.4628 17.6641 16.4153 16.8155 16.051C16.1658 15.7726 15.7688 16.0861 15.6323 16.2281C15.5964 16.2655 15.5808 16.2624 15.5761 16.2148C15.5637 16.0261 15.4786 15.516 14.9186 15.3444C14.1176 15.0995 13.6021 15.6587 13.471 15.8607C13.4125 15.4037 13.0272 15.0496 12.5538 15.0488C12.0398 15.0488 11.6233 15.4645 11.6233 15.9785C11.6225 16.4917 12.039 16.9082 12.553 16.9082C12.8026 16.909 13.0288 16.8091 13.1957 16.6493C13.2012 16.6539 13.2035 16.6625 13.2004 16.6805C13.1614 16.9098 13.0896 17.7459 13.9647 18.0867C14.3157 18.2224 14.6144 18.121 14.8617 17.9479C14.935 17.8956 14.9475 17.9175 14.9366 17.9869C14.9054 18.2022 14.9451 18.6623 15.591 18.9236C16.0816 19.1233 16.3725 18.9189 16.5628 18.7435C16.6455 18.6678 16.6681 18.6795 16.672 18.7965C16.6954 19.4189 17.2125 19.9126 17.8396 19.9134C18.4862 19.9134 19.0103 19.3908 19.0103 18.745C19.0111 18.0984 18.4877 17.5813 17.8411 17.5743Z" fill="white"/>
<path d="M17.8381 19.8271C17.2524 19.8263 16.7758 19.3709 16.754 18.7914C16.7532 18.7415 16.7478 18.6089 16.6362 18.6089C16.5894 18.6089 16.5496 18.637 16.5036 18.6783C16.3749 18.7977 16.2111 18.9193 15.9717 18.9193C15.8625 18.9193 15.7447 18.8936 15.6207 18.8429C15.0014 18.5926 14.9928 18.1675 15.0178 17.9967C15.0248 17.9507 15.0272 17.9032 14.996 17.8665L14.9577 17.833H14.9195C14.8883 17.833 14.8556 17.8454 14.8119 17.8766C14.6325 18.0022 14.4609 18.063 14.2862 18.063C14.1903 18.063 14.092 18.0435 13.9929 18.0053C13.1787 17.6887 13.2434 16.9197 13.2832 16.6889C13.2886 16.6413 13.2769 16.6055 13.2473 16.5813L13.1896 16.5337L13.1358 16.5852C12.9774 16.738 12.7692 16.8223 12.5516 16.8223C12.0844 16.8215 11.7045 16.4425 11.7053 15.9761C11.7053 15.509 12.0859 15.1307 12.5523 15.1307C12.9743 15.1307 13.3331 15.4481 13.3869 15.8693L13.4158 16.0962L13.5406 15.9044C13.5546 15.8817 13.8962 15.3647 14.5249 15.3655C14.6442 15.3655 14.7674 15.3842 14.8922 15.4232C15.393 15.576 15.478 16.0299 15.4912 16.2194C15.4998 16.3294 15.5786 16.3348 15.5942 16.3348C15.6371 16.3348 15.6691 16.3075 15.6917 16.2834C15.7861 16.1851 15.992 16.0213 16.3141 16.0213C16.4615 16.0213 16.6191 16.0564 16.7805 16.1258C17.5768 16.4674 17.2157 17.4789 17.2118 17.4898C17.1432 17.6575 17.1401 17.7316 17.2048 17.7745L17.236 17.7893H17.2594C17.2953 17.7893 17.3397 17.7737 17.4131 17.7487C17.5215 17.7113 17.6853 17.6552 17.8381 17.6552H17.8389C18.4379 17.6622 18.9254 18.1496 18.9254 18.7423C18.9246 19.3405 18.4371 19.8271 17.8381 19.8271ZM26.2742 14.9513C24.9592 13.8042 21.9204 11.1627 21.0976 10.5443C20.6273 10.191 20.3067 10.0039 20.0251 9.92041C19.8988 9.88219 19.7233 9.83852 19.4979 9.83852C19.2889 9.83852 19.0642 9.87595 18.8295 9.95082C18.2975 10.1193 17.7679 10.5404 17.2547 10.9475L17.2282 10.9686C16.7509 11.3483 16.2579 11.7406 15.8843 11.8241C15.7213 11.8607 15.5536 11.8794 15.3867 11.8794C14.9679 11.8794 14.5927 11.7586 14.4515 11.5792C14.4281 11.5488 14.443 11.5012 14.4976 11.4318L14.5054 11.4224L15.662 10.1762C16.5676 9.27 17.4232 8.41526 19.3934 8.37003C19.4254 8.36925 19.4589 8.36847 19.4917 8.36847C20.7177 8.36925 21.9431 8.91827 22.0803 8.98144C23.23 9.54217 24.4171 9.82682 25.6097 9.8276C26.8529 9.82838 28.136 9.52033 29.4845 8.89956C29.334 8.77322 29.1772 8.65 29.0157 8.52912C27.831 9.04227 26.7024 9.30197 25.6136 9.30197C24.5006 9.30041 23.3899 9.0337 22.3104 8.50728C22.2535 8.47999 20.9003 7.84205 19.4917 7.84127C19.455 7.84127 19.4176 7.84205 19.3809 7.84283C17.7266 7.88105 16.7945 8.46907 16.1675 8.98378C15.5583 8.9986 15.0318 9.14522 14.5646 9.27623C14.1466 9.39166 13.7862 9.49226 13.4345 9.49226C13.2894 9.49226 13.0289 9.479 13.0055 9.47822C12.6015 9.46574 10.5634 8.96663 8.94268 8.35287C8.77733 8.46985 8.61822 8.59073 8.46301 8.71395C10.1563 9.40803 12.217 9.94458 12.8674 9.9867C13.0484 9.99917 13.241 10.0195 13.4337 10.0195C13.8642 10.0195 14.2932 9.89935 14.7089 9.78315C14.9538 9.71374 15.2245 9.63887 15.51 9.58428C15.4335 9.65915 15.3579 9.7348 15.2814 9.81045L14.1068 11.0816C14.014 11.1752 13.8128 11.4248 13.9454 11.7313C13.9984 11.8553 14.1052 11.9738 14.255 12.0744C14.5342 12.2631 15.0357 12.3903 15.5022 12.391C15.6784 12.391 15.8461 12.3731 15.9998 12.3388C16.4919 12.228 17.009 11.8163 17.5566 11.3811C17.9926 11.0348 18.6119 10.595 19.0869 10.4655C19.2194 10.4297 19.3825 10.407 19.5127 10.407C19.5517 10.4078 19.5891 10.4086 19.6235 10.4141C19.937 10.4531 20.2396 10.5599 20.7809 10.9662C21.7457 11.6907 26.0145 15.4247 26.0566 15.4622C26.0589 15.4645 26.3311 15.6985 26.3124 16.0892C26.3023 16.3068 26.1814 16.5002 25.9716 16.6343C25.7891 16.7497 25.6011 16.8082 25.4116 16.8082C25.1261 16.8082 24.9295 16.6741 24.9163 16.6655C24.9007 16.6522 23.4383 15.3116 22.9001 14.8609C22.8143 14.7899 22.7308 14.726 22.6466 14.726C22.6021 14.726 22.5624 14.7447 22.5351 14.779C22.4508 14.8835 22.5452 15.0278 22.6575 15.1229L24.3656 16.8394C24.368 16.8418 24.5786 17.0391 24.6012 17.3027C24.6152 17.5873 24.4787 17.8252 24.1956 18.0108C23.9944 18.1434 23.79 18.2112 23.5903 18.2112C23.3283 18.2112 23.1434 18.0911 23.1029 18.063L22.858 17.8213C22.4103 17.3806 21.9477 16.9252 21.6092 16.6429C21.5266 16.5743 21.4384 16.5111 21.3542 16.5111C21.3129 16.5111 21.2754 16.5259 21.2466 16.5563C21.2083 16.5992 21.181 16.6764 21.2778 16.8043C21.3168 16.8566 21.3636 16.9002 21.3636 16.9002L22.6107 18.3009C22.6209 18.3134 22.8673 18.6066 22.6388 18.8983L22.5943 18.9536C22.5577 18.995 22.5171 19.0332 22.4789 19.0659C22.266 19.2406 21.9821 19.2594 21.8698 19.2594C21.8097 19.2594 21.7512 19.2539 21.7013 19.2445C21.578 19.2227 21.4954 19.1884 21.4548 19.1408L21.44 19.1252C21.3721 19.055 20.7435 18.4132 20.2233 17.9796C20.1554 17.9219 20.0696 17.8493 19.9815 17.8493C19.9378 17.8493 19.8988 17.8665 19.8684 17.9C19.7654 18.0123 19.9198 18.1808 19.9854 18.2432L21.0492 19.4153C21.0477 19.4255 21.0344 19.4496 21.0087 19.4871C20.9705 19.5393 20.8418 19.6688 20.4557 19.7171C20.4097 19.7234 20.3621 19.7257 20.3145 19.7257C19.9167 19.7257 19.4924 19.5323 19.274 19.4169C19.3739 19.2063 19.4254 18.9747 19.4254 18.7431C19.4254 17.8673 18.7148 17.1553 17.8397 17.1553C17.821 17.1553 17.8015 17.1553 17.7828 17.156C17.8108 16.7567 17.7547 16.0003 16.9778 15.6673C16.754 15.5706 16.5309 15.5214 16.3149 15.5214C16.1448 15.5214 15.9818 15.5503 15.829 15.6088C15.6675 15.2961 15.4008 15.0683 15.0521 14.9498C14.8595 14.8835 14.6676 14.8492 14.4827 14.8492C14.1591 14.8492 13.8619 14.9443 13.5959 15.1331C13.3417 14.8172 12.9571 14.6293 12.5523 14.6293C12.1982 14.6293 11.8574 14.7712 11.6055 15.0215C11.274 14.7689 9.96131 13.9344 6.44681 13.1366C6.27678 13.0984 5.8868 12.9861 5.64735 12.9167C5.60757 13.1062 5.57716 13.2988 5.55688 13.493C5.55688 13.493 6.20502 13.6482 6.33294 13.677C9.92309 14.4741 11.1086 15.3031 11.3099 15.4598C11.2412 15.6228 11.2061 15.7983 11.2061 15.9761C11.2054 16.717 11.809 17.3214 12.5508 17.3222C12.6342 17.3222 12.7169 17.3144 12.7972 17.2995C12.9096 17.8454 13.2668 18.2596 13.812 18.4717C13.9719 18.5325 14.1333 18.5645 14.2917 18.5645C14.3938 18.5645 14.4976 18.552 14.5982 18.5263C14.6988 18.7821 14.9258 19.101 15.4327 19.3069C15.6106 19.3787 15.7884 19.4161 15.9608 19.4161C16.1019 19.4161 16.24 19.3912 16.3718 19.3428C16.6144 19.9347 17.1931 20.3262 17.8374 20.3262C18.2648 20.327 18.675 20.1531 18.9745 19.845C19.2304 19.9878 19.7709 20.2451 20.3168 20.2459C20.3878 20.2459 20.4541 20.2404 20.5204 20.2326C21.0633 20.1648 21.3152 19.9519 21.4314 19.7873C21.4525 19.7585 21.4712 19.7281 21.4876 19.6961C21.6155 19.7335 21.7559 19.7631 21.9173 19.7639C22.2137 19.7639 22.4984 19.6625 22.7854 19.4528C23.0678 19.25 23.2682 18.9575 23.2971 18.7088C23.2979 18.7049 23.2986 18.7017 23.2994 18.6978C23.3938 18.7173 23.4921 18.7275 23.5896 18.7275C23.8945 18.7275 24.194 18.6323 24.4811 18.4444C25.034 18.0825 25.13 17.6091 25.1214 17.2988C25.2173 17.319 25.3164 17.3292 25.4147 17.3292C25.7009 17.3292 25.9825 17.2434 26.25 17.0726C26.5932 16.8535 26.7991 16.5181 26.8303 16.1274C26.8521 15.8622 26.7866 15.5947 26.6462 15.3647C27.5728 14.9654 29.6904 14.1933 32.1839 13.631C32.1691 13.4376 32.141 13.2466 32.1067 13.0563C29.0898 13.7262 26.8381 14.7002 26.2742 14.9513Z" fill="#0A0080"/>
<path d="M78.7121 11.8853C78.4696 12.2074 78.1225 12.3681 77.6685 12.3681C77.2154 12.3681 76.866 12.2074 76.6218 11.8853C76.3769 11.5632 76.2553 11.1046 76.2553 10.511C76.2553 9.91746 76.3769 9.46041 76.6218 9.13984C76.866 8.82006 77.2154 8.65939 77.6685 8.65939C78.1225 8.65939 78.4696 8.82006 78.7121 9.13984C78.9547 9.46041 79.0771 9.91746 79.0771 10.511C79.0771 11.1046 78.9547 11.5632 78.7121 11.8853ZM79.9523 8.28891C79.4515 7.6626 78.6926 7.34905 77.6732 7.34905C76.6554 7.34905 75.8957 7.6626 75.3957 8.28891C74.895 8.91599 74.6446 9.65618 74.6446 10.511C74.6446 11.3807 74.895 12.124 75.3957 12.7425C75.8957 13.3586 76.6554 13.6683 77.6732 13.6683C78.6926 13.6683 79.4515 13.3586 79.9523 12.7425C80.453 12.124 80.7026 11.3807 80.7026 10.511C80.7026 9.65618 80.453 8.91599 79.9523 8.28891Z" fill="#0A0080"/>
<path d="M66.3781 11.1521C66.3679 11.6724 66.219 12.0311 65.9327 12.2269C65.6465 12.4235 65.3337 12.5225 64.9944 12.5225C64.7799 12.5225 64.5982 12.4625 64.4485 12.3447C64.2987 12.2261 64.2246 12.0343 64.2246 11.7683C64.2246 11.4711 64.3463 11.2512 64.5912 11.1085C64.737 11.0258 64.9741 10.954 65.3064 10.8971L65.6605 10.8316C65.8368 10.798 65.9756 10.7621 66.077 10.7239C66.18 10.6865 66.279 10.6366 66.3781 10.5742V11.1521ZM67.1666 7.76398C66.6589 7.50737 66.0786 7.37712 65.425 7.37712C64.4204 7.37712 63.7114 7.63919 63.2988 8.16254C63.0391 8.49792 62.894 8.92456 62.8597 9.44479H64.3603C64.3978 9.21549 64.4711 9.03376 64.5818 8.8996C64.737 8.71787 64.9999 8.62662 65.3719 8.62662C65.7042 8.62662 65.9561 8.67185 66.1277 8.76623C66.2985 8.85826 66.3843 9.02674 66.3843 9.27008C66.3843 9.47053 66.2736 9.61717 66.0489 9.71232C65.9241 9.76692 65.7174 9.81216 65.4273 9.84881L64.8954 9.91433C64.2917 9.98999 63.8323 10.1179 63.5219 10.2965C62.9533 10.6241 62.6701 11.1521 62.6701 11.8837C62.6701 12.4469 62.8456 12.8829 63.199 13.1902C63.5515 13.4975 64 13.6262 64.5413 13.6519C67.9349 13.8032 67.8967 11.8635 67.9279 11.4594V9.22641C67.9279 8.5104 67.6736 8.02293 67.1666 7.76398Z" fill="#0A0080"/>
<path d="M59.4258 8.70787C59.8142 8.70787 60.0989 8.82799 60.2829 9.06744C60.4093 9.24449 60.4881 9.44494 60.5185 9.66644H62.1931C62.101 8.82175 61.8054 8.2321 61.3062 7.8975C60.8055 7.56523 60.1652 7.39754 59.3813 7.39754C58.4586 7.39754 57.7348 7.68067 57.2114 8.24614C56.6873 8.81239 56.4252 9.60327 56.4252 10.6203C56.4252 11.5204 56.6623 12.2544 57.1366 12.8206C57.6108 13.3853 58.351 13.6684 59.3571 13.6684C60.364 13.6684 61.1237 13.3299 61.6362 12.6514C61.9567 12.231 62.1369 11.7848 62.1751 11.3137H60.5068C60.4725 11.6249 60.375 11.8792 60.2135 12.075C60.0528 12.27 59.7814 12.3682 59.3977 12.3682C58.8579 12.3682 58.4898 12.1225 58.294 11.628C58.1872 11.3652 58.1334 11.0166 58.1334 10.5821C58.1334 10.1266 58.1872 9.7616 58.294 9.48627C58.4976 8.96838 58.8751 8.70787 59.4258 8.70787Z" fill="#0A0080"/>
<path d="M55.9775 7.39754C52.5387 7.39754 52.7423 10.4425 52.7423 10.4425V13.535H54.3022V10.6344C54.3022 10.1594 54.3622 9.80684 54.4816 9.57831C54.6953 9.17273 55.1141 8.96916 55.7381 8.96916C55.7849 8.96916 55.8465 8.9715 55.9229 8.9754C55.9986 8.97852 56.0852 8.98554 56.1842 8.99724V7.40924C56.1148 7.40456 56.0704 7.403 56.0509 7.40066C56.0306 7.3991 56.0064 7.39754 55.9775 7.39754Z" fill="#0A0080"/>
<path d="M48.1473 9.01362C48.3672 8.78821 48.6753 8.67511 49.0723 8.67511C49.4389 8.67511 49.7446 8.78119 49.9919 8.9949C50.2384 9.20705 50.3764 9.51981 50.4045 9.93085H47.7347C47.7901 9.54477 47.9281 9.23981 48.1473 9.01362ZM50.2446 11.919C50.1791 12.0126 50.1089 12.0929 50.0309 12.1553C49.8109 12.337 49.5114 12.3916 49.1589 12.3916C48.8251 12.3916 48.5646 12.3409 48.3282 12.192C47.939 11.9533 47.7199 11.5485 47.6965 10.9534H52.0143C52.0206 10.4417 52.0034 10.0502 51.9621 9.7772C51.8903 9.31312 51.7328 8.90364 51.4902 8.55188C51.2211 8.15254 50.8787 7.86006 50.4653 7.67443C50.0527 7.48957 49.5886 7.39754 49.0723 7.39754C48.2027 7.39754 47.4968 7.67131 46.9524 8.21884C46.408 8.76715 46.135 9.55413 46.135 10.5806C46.135 11.6772 46.4368 12.4681 47.0405 12.954C47.6434 13.4399 48.3399 13.684 49.1285 13.684C50.0839 13.684 50.8272 13.3954 51.3584 12.819C51.6446 12.5156 51.824 12.2154 51.8997 11.919H50.2446Z" fill="#0A0080"/>
<path d="M45.5107 13.5336H44.085V9.94426C44.085 9.61667 43.9773 8.83671 43.0367 8.83671C42.4096 8.83671 41.9565 9.28909 41.9565 9.94426V13.5336H40.5299V9.94426C40.5299 9.61667 40.4324 8.83671 39.4926 8.83671C38.8545 8.83671 38.4115 9.28909 38.4115 9.94426V13.5336H36.9858V9.97857C36.9858 8.49665 37.9685 7.37585 39.4926 7.37585C40.2491 7.37585 40.8645 7.69407 41.2646 8.20339C41.6858 7.69407 42.3121 7.37585 43.0367 7.37585C44.5927 7.37585 45.5107 8.45141 45.5107 9.97857V13.5336Z" fill="#0A0080"/>
<path d="M72.3084 11.8962C72.0807 12.2231 71.7461 12.3861 71.3078 12.3861C70.8686 12.3861 70.5418 12.2215 70.3266 11.8939C70.1113 11.5648 70.0037 11.0874 70.0037 10.5399C70.0037 10.0321 70.1089 9.60707 70.3211 9.26466C70.5325 8.92226 70.8647 8.75067 71.3187 8.75067C71.6158 8.75067 71.8771 8.84427 72.1025 9.03302C72.4683 9.345 72.6516 9.90423 72.6516 10.6296C72.6516 11.1475 72.537 11.5702 72.3084 11.8962ZM74.1803 5.52164C74.1803 5.52164 72.6079 5.35394 72.6079 6.6167L72.6072 8.28815C72.4332 8.00893 72.207 7.78976 71.9278 7.63299C71.6494 7.47544 71.3304 7.39588 70.97 7.39588C70.1908 7.39588 69.5692 7.68602 69.1028 8.26632C68.6364 8.84661 68.4047 9.68272 68.4047 10.6943C68.4047 11.5718 68.6411 12.2909 69.1137 12.8517C69.5872 13.4109 70.5153 13.6566 71.339 13.6566C74.2123 13.6566 74.1788 11.1919 74.1788 11.1919L74.1803 5.52164Z" fill="#0A0080"/>
<path d="M41.1609 19.215C41.1609 18.6269 41.0462 18.1745 40.8162 17.8571C40.5868 17.5412 40.2585 17.3813 39.8295 17.3813C39.4177 17.3813 39.0956 17.5412 38.8655 17.8571C38.6525 18.1441 38.5457 18.5981 38.5457 19.215C38.5457 19.7906 38.6596 20.2188 38.8896 20.5058C39.1182 20.8233 39.4481 20.9816 39.8755 20.9816C40.2733 20.9816 40.5868 20.8233 40.8162 20.5058C41.0462 20.1892 41.1609 19.7602 41.1609 19.215ZM38.5457 23.4377C38.5457 23.6483 38.4692 23.83 38.3148 23.9806C38.1627 24.1319 37.9794 24.2075 37.7649 24.2075H36.9858V18.7845C36.9858 17.73 37.3406 17.0701 37.9256 16.6232C38.3125 16.3284 38.8881 16.0468 39.9676 16.0468C40.696 16.0468 41.5493 16.3299 42.0103 16.8915C42.5274 17.5233 42.7427 18.2276 42.7427 19.1471C42.7427 20.0987 42.5133 20.8662 42.0555 21.4566C41.5969 22.0307 41.0072 22.3161 40.2881 22.3161C39.9059 22.3161 39.5698 22.2483 39.2796 22.1133C38.9723 21.962 38.729 21.728 38.5457 21.4106V23.4377Z" fill="#0A0080"/>
<path d="M50.5141 19.2164C50.5141 20.2568 50.8152 20.8332 51.4157 20.9471C52.0155 21.0586 52.4593 20.919 52.7448 20.5275C52.8805 20.3629 52.9772 20.1016 53.0381 19.7483C53.0973 19.3942 53.102 19.0432 53.049 18.6969C52.9975 18.349 52.8727 18.0402 52.6769 17.7688C52.4827 17.4981 52.1965 17.3616 51.8213 17.3616C51.3105 17.3616 50.9657 17.5511 50.7848 17.9263C50.6038 18.3038 50.5141 18.7336 50.5141 19.2164ZM53.0833 21.8167V21.4338C52.8134 21.8565 52.4476 22.1186 51.9898 22.2247C51.532 22.33 51.0772 22.2925 50.628 22.1108C50.1764 21.9306 49.7895 21.5952 49.4666 21.1054C49.1437 20.614 48.983 19.9698 48.983 19.1703C48.983 18.2367 49.1968 17.4786 49.6242 16.8983C50.0524 16.318 50.7403 16.0528 51.6864 16.0271C52.6184 16.0021 53.1605 16.2135 53.6917 16.6152C54.272 17.0559 54.6151 17.7313 54.6151 18.7866V21.9766C54.6175 22.9914 53.9093 24.8726 51.6864 24.7135C50.309 24.6137 49.5446 24.0482 49.118 22.7683H50.7629C50.883 22.9789 51.0663 23.1403 51.3151 23.2527C51.5616 23.3673 51.8112 23.3969 52.0569 23.3439C52.3049 23.2909 52.5303 23.1435 52.7347 22.9032C52.9367 22.6622 53.0529 22.2995 53.0833 21.8167Z" fill="#0A0080"/>
<path d="M46.8569 19.8461C46.8468 20.3663 46.6978 20.7243 46.4123 20.9208C46.1261 21.1166 45.8133 21.2149 45.4741 21.2149C45.2588 21.2149 45.0771 21.1556 44.9281 21.0378C44.7783 20.9201 44.7034 20.7274 44.7034 20.4614C44.7034 20.1643 44.8259 19.9443 45.0708 19.8024C45.2167 19.7189 45.4538 19.6472 45.7853 19.5902L46.1394 19.5247C46.3164 19.4912 46.4552 19.4553 46.5559 19.4171C46.6588 19.3796 46.7579 19.3305 46.8569 19.2681V19.8461ZM47.6455 16.4579C47.1377 16.2013 46.5574 16.071 45.9046 16.071C44.8992 16.071 44.191 16.3331 43.7776 16.8565C43.5187 17.1911 43.3728 17.6177 43.3393 18.1387H44.8407C44.8774 17.9086 44.9507 17.7269 45.0615 17.5927C45.2167 17.411 45.4795 17.3205 45.8508 17.3205C46.1846 17.3205 46.4357 17.3658 46.6066 17.4594C46.7774 17.5522 46.8639 17.7207 46.8639 17.964C46.8639 18.1637 46.7524 18.3111 46.5286 18.4062C46.4045 18.4608 46.1971 18.5061 45.9069 18.5427L45.375 18.6075C44.7713 18.6839 44.3119 18.8118 44.0015 18.9897C43.4329 19.3172 43.149 19.8461 43.149 20.5769C43.149 21.14 43.3253 21.576 43.6786 21.8833C44.0311 22.1898 44.4796 22.3201 45.0209 22.345C48.4129 22.4964 48.3755 20.5558 48.4067 20.1526V17.9196C48.4067 17.2035 48.1532 16.7169 47.6455 16.4579Z" fill="#0A0080"/>
<path d="M59.276 20.5445C59.0334 20.8674 58.6856 21.0281 58.2324 21.0281C57.7785 21.0281 57.4291 20.8674 57.1857 20.5445C56.94 20.2232 56.8184 19.7653 56.8184 19.1718C56.8184 18.5782 56.94 18.1212 57.1857 17.8006C57.4291 17.48 57.7785 17.3209 58.2324 17.3209C58.6856 17.3209 59.0334 17.48 59.276 17.8006C59.5186 18.1212 59.6403 18.5782 59.6403 19.1718C59.6403 19.7653 59.5186 20.2232 59.276 20.5445ZM60.5162 16.9497C60.0154 16.3226 59.2557 16.0098 58.2363 16.0098C57.2193 16.0098 56.4588 16.3226 55.9588 16.9497C55.4581 17.576 55.2077 18.3162 55.2077 19.1718C55.2077 20.0414 55.4581 20.784 55.9588 21.4025C56.4588 22.0186 57.2193 22.3283 58.2363 22.3283C59.2557 22.3283 60.0154 22.0186 60.5162 21.4025C61.0161 20.784 61.2649 20.0414 61.2649 19.1718C61.2649 18.3162 61.0161 17.576 60.5162 16.9497Z" fill="#0A0080"/>
</svg>
