<svg width="45" height="30" viewBox="0 0 45 30" fill="none" xmlns="http://www.w3.org/2000/svg">
<rect x="0.5" y="0.5" width="44" height="29" rx="3.5" fill="white" stroke="#F3F3F3"/>
<path d="M19.9799 20.5749H16.9839L18.8578 10.0743H21.8536L19.9799 20.5749Z" fill="#15195A"/>
<path d="M30.8403 10.3311C30.2494 10.1186 29.3121 9.88403 28.1532 9.88403C25.1945 9.88403 23.1111 11.3138 23.0983 13.358C23.0738 14.8662 24.59 15.7038 25.724 16.2067C26.8832 16.7206 27.2772 17.056 27.2772 17.514C27.2654 18.2175 26.3405 18.5417 25.478 18.5417C24.2818 18.5417 23.6409 18.3746 22.667 17.9832L22.2725 17.8154L21.8532 20.1725C22.5559 20.4627 23.8505 20.7201 25.1945 20.7314C28.3381 20.7314 30.3847 19.3237 30.409 17.1454C30.4209 15.95 29.6203 15.0341 27.8942 14.2856C26.8463 13.8052 26.2046 13.4812 26.2046 12.9896C26.2169 12.5427 26.7473 12.085 27.9302 12.085C28.9042 12.0626 29.6198 12.2747 30.1619 12.487L30.4329 12.5985L30.8403 10.3311Z" fill="#15195A"/>
<path fill-rule="evenodd" clip-rule="evenodd" d="M36.2032 10.0743H38.5206L40.9376 20.5747H38.1636C38.1636 20.5747 37.8922 19.3682 37.8062 18.9996H33.9596C33.8483 19.2787 33.3308 20.5747 33.3308 20.5747H30.1872L34.6373 10.9456C34.9457 10.2641 35.4886 10.0743 36.2032 10.0743ZM36.0187 13.9169C36.0187 13.9169 35.0693 16.2517 34.8225 16.8549H37.3128C37.1896 16.3299 36.6222 13.8164 36.6222 13.8164L36.4128 12.9116C36.3247 13.1446 36.1972 13.4649 36.1112 13.681C36.0529 13.8275 36.0136 13.926 36.0187 13.9169Z" fill="#15195A"/>
<path d="M8.82251 10.0743C9.47587 10.0965 10.0064 10.2865 10.179 10.9572L11.2258 15.7804L11.2268 15.7823L11.5471 17.2345L14.4817 10.0743H17.6497L12.9407 20.5636H9.77173L7.10181 11.4386C6.18059 10.9506 5.1288 10.5587 3.95337 10.2863L4.0022 10.0743H8.82251Z" fill="#15195A"/>
</svg>
